<svg width="300" height="300" viewBox="0 0 300 300" fill="none" xmlns="http://www.w3.org/2000/svg">
<g clip-path="url(#clip0_13358_26022)">
<rect width="300" height="300" fill="white"/>
<path d="M217.072 230.678L249.318 246.433C250.286 246.907 251.454 246.485 251.886 245.498C260.304 226.219 267.243 201.46 269.346 175.835C271.383 151.017 268.865 125.641 259.01 103.683L258.996 103.689C258.558 102.743 258.113 101.8 257.661 100.859C254.27 94.3552 247.918 86.3782 238.565 81.1001C228.022 75.1509 213.376 72.4584 194.157 79.6565C190.079 81.1836 185.928 83.1569 181.766 85.511C186.994 94.4051 190.74 106.4 191.037 122.217C191.306 136.513 188.987 150.05 185.433 162.111L230.528 178.852C231.715 179.292 232.475 180.462 232.368 181.724C231.153 195.964 227.339 209.853 221.195 222.797C219.948 225.423 218.576 228.06 217.072 230.678Z" fill="black"/>
<path d="M102.914 221.234C105.79 220.368 108.828 219.116 112.016 217.375C125.517 210 135.727 197.956 142.986 186.142C148.865 176.573 152.924 166.965 155.279 159.694C155.422 159.251 155.905 159.015 156.342 159.177L223.392 184.068C224.211 184.372 224.721 185.191 224.611 186.057C223.494 194.834 220.488 207.211 214.564 219.69C207.63 234.294 196.826 248.783 180.659 257.942C167.3 265.509 153.638 269.413 140.866 269.999C126.951 267.645 117.822 261.606 112.006 253.541C105.848 245.002 103.11 233.781 102.914 221.234Z" fill="black"/>
<path d="M136.682 31.0744C171.064 27.0516 196.611 34.6571 216.002 48.3473C226.306 55.6215 234.959 64.6758 242.297 74.7717L242.218 74.727C229.702 67.6642 212.769 64.8651 191.584 72.7993C163.144 83.4508 132.485 113.466 116.162 144.075C105.575 163.928 95.1343 194.372 95.529 221.241C95.7269 234.709 98.6534 247.618 106.007 257.816C108.567 261.366 111.629 264.539 115.228 267.268C89.0385 260.754 56.0851 242.616 38.3259 200.808C22.8278 164.324 30.1967 123.937 50.2764 91.4772C70.3868 58.9674 102.863 35.0314 136.682 31.0744Z" fill="black"/>
</g>
<defs>
<clipPath id="clip0_13358_26022">
<rect width="300" height="300" fill="white"/>
</clipPath>
</defs>
</svg>
