<svg preserveAspectRatio="none" width="100%" height="100%" overflow="visible" style="display: block;" viewBox="0 0 109.372 51.5284" fill="none" xmlns="http://www.w3.org/2000/svg">
<g id="Group 1410121305">
<rect id="Rectangle 346604030" width="10.3142" height="10.3142" transform="matrix(1 -1.54038e-05 -1.54038e-05 -1 10.311 51.5272)" fill="var(--fill-0, #EFEFEF)"/>
<path id="Rectangle 346604031" d="M31.9896 51.5284L58.2439 51.528L58.2437 41.2138L31.9895 41.2142L31.9896 51.5284Z" fill="var(--fill-0, #EFEFEF)"/>
<rect id="Rectangle 346604032" width="10.3142" height="10.3142" transform="matrix(1 -1.54038e-05 -1.54038e-05 -1 68.4474 51.5272)" fill="var(--fill-0, #EFEFEF)"/>
<rect id="Rectangle 346604034" width="10.3142" height="10.3142" transform="matrix(1 -1.54038e-05 -1.54038e-05 -1 10.311 30.9006)" fill="var(--fill-0, #EFEFEF)"/>
<rect id="Rectangle 346604059" width="10.3142" height="10.3142" transform="matrix(1 -1.54038e-05 -1.54038e-05 -1 47.9995 20.5294)" fill="var(--fill-0, #EFEFEF)"/>
<rect id="Rectangle 346604037" width="10.3142" height="10.3142" transform="matrix(1 -1.54038e-05 -1.54038e-05 -1 0.000158878 41.2151)" fill="var(--fill-0, #EFEFEF)"/>
<rect id="Rectangle 346604041" width="10.3142" height="10.3142" transform="matrix(1 -1.54038e-05 -1.54038e-05 -1 99.0583 41.2152)" fill="var(--fill-0, #EFEFEF)"/>
<rect id="Rectangle 346604043" width="10.3142" height="10.3142" transform="matrix(1 -1.54038e-05 -1.54038e-05 -1 89.0802 30.9006)" fill="var(--fill-0, #EFEFEF)"/>
<path id="Rectangle 346604058" d="M78.765 10.3143L89.0791 10.3142L89.079 0L78.7648 0.000158878L78.765 10.3143Z" fill="var(--fill-0, #EFEFEF)"/>
</g>
</svg>
