<svg preserveAspectRatio="none" width="100%" height="100%" overflow="visible" style="display: block;" viewBox="0 0 20 20" fill="none" xmlns="http://www.w3.org/2000/svg">
<g id="Info">
<path id="Vector" d="M10 2C8.41775 2 6.87103 2.46919 5.55544 3.34824C4.23985 4.22729 3.21447 5.47672 2.60897 6.93853C2.00347 8.40034 1.84504 10.0089 2.15372 11.5607C2.4624 13.1126 3.22433 14.538 4.34315 15.6569C5.46197 16.7757 6.88743 17.5376 8.43928 17.8463C9.99113 18.155 11.5997 17.9965 13.0615 17.391C14.5233 16.7855 15.7727 15.7602 16.6518 14.4446C17.5308 13.129 18 11.5822 18 10C17.9978 7.87895 17.1542 5.84542 15.6544 4.34562C14.1546 2.84581 12.121 2.00224 10 2ZM10 16.7692C8.66117 16.7692 7.35241 16.3722 6.23922 15.6284C5.12603 14.8846 4.2584 13.8274 3.74605 12.5905C3.2337 11.3536 3.09965 9.99249 3.36084 8.67939C3.62203 7.36629 4.26674 6.16012 5.21343 5.21343C6.16013 4.26674 7.36629 3.62203 8.67939 3.36084C9.99249 3.09965 11.3536 3.2337 12.5905 3.74605C13.8274 4.25839 14.8846 5.12602 15.6284 6.23922C16.3722 7.35241 16.7692 8.66117 16.7692 10C16.7672 11.7947 16.0534 13.5153 14.7843 14.7843C13.5153 16.0534 11.7947 16.7672 10 16.7692ZM11.2308 13.6923C11.2308 13.8555 11.1659 14.012 11.0505 14.1274C10.9351 14.2429 10.7786 14.3077 10.6154 14.3077C10.289 14.3077 9.97592 14.178 9.7451 13.9472C9.51429 13.7164 9.38462 13.4033 9.38462 13.0769V10C9.22141 10 9.06488 9.93516 8.94947 9.81976C8.83407 9.70435 8.76923 9.54782 8.76923 9.38461C8.76923 9.2214 8.83407 9.06488 8.94947 8.94947C9.06488 8.83406 9.22141 8.76923 9.38462 8.76923C9.71104 8.76923 10.0241 8.8989 10.2549 9.12971C10.4857 9.36053 10.6154 9.67358 10.6154 10V13.0769C10.7786 13.0769 10.9351 13.1418 11.0505 13.2572C11.1659 13.3726 11.2308 13.5291 11.2308 13.6923ZM8.76923 6.61538C8.76923 6.43282 8.82337 6.25435 8.9248 6.10255C9.02623 5.95075 9.17039 5.83244 9.33906 5.76257C9.50773 5.69271 9.69333 5.67443 9.87239 5.71004C10.0515 5.74566 10.2159 5.83357 10.345 5.96267C10.4741 6.09176 10.562 6.25624 10.5976 6.4353C10.6333 6.61436 10.615 6.79996 10.5451 6.96863C10.4753 7.1373 10.3569 7.28146 10.2051 7.38289C10.0533 7.48432 9.87488 7.53846 9.69231 7.53846C9.44749 7.53846 9.21271 7.44121 9.0396 7.2681C8.86648 7.09499 8.76923 6.8602 8.76923 6.61538Z" fill="var(--fill-0, #A1A1A1)"/>
</g>
</svg>
