<svg preserveAspectRatio="none" width="100%" height="100%" overflow="visible" style="display: block;" viewBox="0 0 42 38.01" fill="none" xmlns="http://www.w3.org/2000/svg">
<g id="Group">
<path id="Vector" d="M1.995 10.0013H40.005V36.0019H42V2.00812H40.005V8.00625H1.995V2.00812H0V36.0019H1.995V10.0013Z" fill="var(--fill-0, #006BF4)"/>
<path id="Vector_2" d="M40.005 36.0019H1.995V38.01H40.005V36.0019Z" fill="var(--fill-0, #006BF4)"/>
<path id="Vector_3" d="M5.99813 14.0044V32.0119H36.0019V14.0044H5.99813ZM17.9944 24.0056H15.9994V26.0006H14.0044V28.0088H11.9963V26.0006H14.0044V24.0056H15.9994V22.0106H14.0044V20.0025H11.9963V18.0075H14.0044V20.0025H15.9994V22.0106H17.9944V24.0056ZM30.0038 24.0056H21.9975V22.0106H30.0038V24.0056Z" fill="var(--fill-0, #3389F6)"/>
<path id="Vector_4" d="M14.0044 4.00313H11.9963V6.01125H14.0044V4.00313Z" fill="var(--fill-0, #006BF4)"/>
<path id="Vector_5" d="M10.0012 4.00313H8.00625V6.01125H10.0012V4.00313Z" fill="var(--fill-0, #006BF4)"/>
<path id="Vector_6" d="M5.99812 4.00313H4.00312V6.01125H5.99812V4.00313Z" fill="var(--fill-0, #006BF4)"/>
<path id="Vector_7" d="M40.005 0H1.995V2.00813H40.005V0Z" fill="var(--fill-0, #006BF4)"/>
</g>
</svg>
