<svg preserveAspectRatio="none" width="100%" height="100%" overflow="visible" style="display: block;" viewBox="0 0 20 20" fill="none" xmlns="http://www.w3.org/2000/svg">
<g id="MagnifyingGlass">
<path id="Vector" d="M17.9438 17.0578L14.0321 13.1469C15.1659 11.7857 15.7312 10.0398 15.6106 8.27244C15.4899 6.50506 14.6925 4.85223 13.3843 3.65779C12.076 2.46334 10.3576 1.81926 8.58657 1.85951C6.81553 1.89976 5.12818 2.62125 3.87554 3.87389C2.62289 5.12653 1.9014 6.81388 1.86115 8.58492C1.8209 10.356 2.46499 12.0744 3.65943 13.3826C4.85387 14.6909 6.5067 15.4883 8.27409 15.6089C10.0415 15.7296 11.7874 15.1642 13.1485 14.0305L17.0595 17.9422C17.1175 18.0003 17.1865 18.0463 17.2623 18.0777C17.3382 18.1092 17.4195 18.1253 17.5016 18.1253C17.5838 18.1253 17.6651 18.1092 17.741 18.0777C17.8168 18.0463 17.8858 18.0003 17.9438 17.9422C18.0019 17.8841 18.048 17.8152 18.0794 17.7393C18.1108 17.6634 18.127 17.5821 18.127 17.5C18.127 17.4179 18.1108 17.3366 18.0794 17.2607C18.048 17.1848 18.0019 17.1159 17.9438 17.0578ZM3.12664 8.75C3.12664 7.63748 3.45654 6.54994 4.07463 5.62491C4.69271 4.69989 5.57121 3.97892 6.59905 3.55317C7.62688 3.12743 8.75788 3.01604 9.84903 3.23308C10.9402 3.45012 11.9424 3.98585 12.7291 4.77252C13.5158 5.55919 14.0515 6.56147 14.2686 7.65261C14.4856 8.74376 14.3742 9.87476 13.9485 10.9026C13.5227 11.9304 12.8018 12.8089 11.8767 13.427C10.9517 14.0451 9.86416 14.375 8.75164 14.375C7.26031 14.3733 5.83053 13.7802 4.77599 12.7256C3.72146 11.6711 3.1283 10.2413 3.12664 8.75Z" fill="var(--fill-0, #848483)"/>
</g>
</svg>
