<svg preserveAspectRatio="none" width="100%" height="100%" overflow="visible" style="display: block;" viewBox="0 0 42 41.9981" fill="none" xmlns="http://www.w3.org/2000/svg">
<g id="Group">
<path id="Vector" d="M29.9906 10.0028V14.0059H27.9956V20.0041H29.9906V21.9991H31.9988V24.0072H26.0006V26.0022H23.9925V27.9972H29.9906V32.0003H27.9956V36.0034H29.9906V37.9984H33.9938V36.0034H36.0019V33.9953H37.9969V30.0053H39.9919V26.0022H42V16.0009H39.9919V11.9978H37.9969V8.00781H36.0019V10.0028H29.9906Z" fill="var(--fill-0, #3389F6)"/>
<path id="Vector_2" d="M36.0019 6H33.9937V8.00812H36.0019V6Z" fill="var(--fill-0, #006BF4)"/>
<path id="Vector_3" d="M33.9938 4.00391H29.9906V5.99891H33.9938V4.00391Z" fill="var(--fill-0, #006BF4)"/>
<path id="Vector_4" d="M29.9906 37.9961H26.0006V40.0042H29.9906V37.9961Z" fill="var(--fill-0, #006BF4)"/>
<path id="Vector_5" d="M29.9906 1.99609H26.0006V4.00422H29.9906V1.99609Z" fill="var(--fill-0, #006BF4)"/>
<path id="Vector_6" d="M21.9975 37.995H20.0025V36H13.9912V37.995H11.9962V40.0031H15.9994V41.9981H26.0006V40.0031H21.9975V37.995Z" fill="var(--fill-0, #006BF4)"/>
<path id="Vector_7" d="M26.0006 0H15.9994V1.995H26.0006V0Z" fill="var(--fill-0, #006BF4)"/>
<path id="Vector_8" d="M13.9913 21.9992H15.9994V24.0073H17.9944V17.9961H13.9913V21.9992Z" fill="var(--fill-0, #3389F6)"/>
<path id="Vector_9" d="M11.9962 36H7.99312V37.995H11.9962V36Z" fill="var(--fill-0, #006BF4)"/>
<path id="Vector_10" d="M7.99312 33.9922H5.99812V36.0003H7.99312V33.9922Z" fill="var(--fill-0, #006BF4)"/>
<path id="Vector_11" d="M4.00312 30.0048V33.9948H5.99813V31.9998H7.99313V30.0048H10.0012V24.0067H7.99313V21.9986H5.99813V20.0036H4.00312V17.9955H5.99813V16.0005H11.9963V14.0055H13.9912V11.9973H15.9994V14.0055H17.9944V11.9973H20.0025V8.00734H17.9944V5.99922H13.9912V4.00422H15.9994V1.99609H11.9963V4.00422H7.99313V5.99922H5.99813V8.00734H4.00312V11.9973H1.995V16.0005H0V26.0017H1.995V30.0048H4.00312Z" fill="var(--fill-0, #006BF4)"/>
</g>
</svg>
