<svg preserveAspectRatio="none" width="100%" height="100%" overflow="visible" style="display: block;" viewBox="0 0 7 12" fill="none" xmlns="http://www.w3.org/2000/svg">
<path id="Vector" d="M6.82894 6.38589L0.996255 11.8402C0.942063 11.8908 0.877728 11.931 0.806924 11.9585C0.736119 11.9859 0.660231 12 0.583592 12C0.506954 12 0.431066 11.9859 0.360261 11.9585C0.289456 11.931 0.225122 11.8908 0.17093 11.8402C0.116738 11.7895 0.0737513 11.7293 0.0444231 11.6631C0.0150948 11.5969 0 11.5259 0 11.4543C0 11.3826 0.0150948 11.3116 0.0444231 11.2454C0.0737513 11.1792 0.116738 11.1191 0.17093 11.0684L5.59168 6L0.17093 0.93162C0.0614851 0.829275 -1.15319e-09 0.690467 0 0.54573C1.15319e-09 0.400994 0.0614851 0.262185 0.17093 0.159841C0.280375 0.0574964 0.428814 1.07837e-09 0.583592 0C0.738371 -1.07837e-09 0.88681 0.0574964 0.996255 0.159841L6.82894 5.61411C6.88317 5.66476 6.92619 5.72492 6.95554 5.79113C6.98489 5.85735 7 5.92832 7 6C7 6.07168 6.98489 6.14265 6.95554 6.20887C6.92619 6.27508 6.88317 6.33523 6.82894 6.38589Z" fill="var(--fill-0, #848483)"/>
</svg>
