<svg preserveAspectRatio="none" width="100%" height="100%" overflow="visible" style="display: block;" viewBox="0 0 109.372 51.5292" fill="none" xmlns="http://www.w3.org/2000/svg">
<g id="Group 1410121305">
<rect id="Rectangle 346604030" width="10.3142" height="10.3142" transform="matrix(1 -1.54038e-05 -1.54038e-05 -1 10.311 51.5292)" fill="var(--fill-0, #EFEFEF)"/>
<path id="Rectangle 346604031" d="M31.9898 51.5292L58.244 51.5288L58.2439 41.2146L31.9896 41.215L31.9898 51.5292Z" fill="var(--fill-0, #EFEFEF)"/>
<rect id="Rectangle 346604034" width="10.3142" height="10.3142" transform="matrix(1 -1.54038e-05 -1.54038e-05 -1 10.311 30.9003)" fill="var(--fill-0, #EFEFEF)"/>
<rect id="Rectangle 346604059" width="10.3142" height="10.3142" transform="matrix(1 -1.54038e-05 -1.54038e-05 -1 47.9997 14.9979)" fill="var(--fill-0, #EFEFEF)"/>
<rect id="Rectangle 346604037" width="10.3142" height="10.3142" transform="matrix(1 -1.54038e-05 -1.54038e-05 -1 0.000158878 41.2167)" fill="var(--fill-0, #EFEFEF)"/>
<rect id="Rectangle 346604041" width="10.3142" height="10.3142" transform="matrix(1 -1.54038e-05 -1.54038e-05 -1 99.058 41.2167)" fill="var(--fill-0, #EFEFEF)"/>
<rect id="Rectangle 346604043" width="10.3142" height="10.3142" transform="matrix(1 -1.54038e-05 -1.54038e-05 -1 89.08 30.9003)" fill="var(--fill-0, #EFEFEF)"/>
<path id="Rectangle 346604058" d="M78.7647 10.3143L89.0789 10.3142L89.0787 1.46934e-07L78.7645 0.000159025L78.7647 10.3143Z" fill="var(--fill-0, #EFEFEF)"/>
</g>
</svg>
