<svg preserveAspectRatio="none" width="100%" height="100%" overflow="visible" style="display: block;" viewBox="0 0 12 7" fill="none" xmlns="http://www.w3.org/2000/svg">
<path id="Vector" d="M11.84 6.82894C11.7894 6.88317 11.7292 6.92619 11.663 6.95554C11.5968 6.98489 11.5258 7 11.4541 7C11.3825 7 11.3115 6.98489 11.2453 6.95554C11.1791 6.92619 11.1189 6.88317 11.0683 6.82894L5.99994 1.4083L0.93161 6.82894C0.829267 6.93838 0.69046 6.99987 0.545724 6.99987C0.400989 6.99987 0.262182 6.93838 0.159839 6.82894C0.0574958 6.7195 2.85308e-09 6.57106 0 6.41628C-2.85307e-09 6.26151 0.0574958 6.11307 0.159839 6.00363L5.61405 0.171061C5.66471 0.116832 5.72486 0.073812 5.79107 0.04446C5.85729 0.015108 5.92826 0 5.99994 0C6.07161 0 6.14259 0.015108 6.2088 0.04446C6.27501 0.073812 6.33517 0.116832 6.38582 0.171061L11.84 6.00363C11.8907 6.0578 11.931 6.12213 11.9584 6.19293C11.9859 6.26374 12 6.33964 12 6.41628C12 6.49293 11.9859 6.56883 11.9584 6.63964C11.931 6.71044 11.8907 6.77477 11.84 6.82894Z" fill="var(--fill-0, #848483)"/>
</svg>
