<svg preserveAspectRatio="none" width="100%" height="100%" overflow="visible" style="display: block;" viewBox="0 0 219.678 93.4692" fill="none" xmlns="http://www.w3.org/2000/svg">
<g id="Group 1547769419">
<rect id="Rectangle 346604030" width="10.3142" height="10.3142" transform="matrix(1 -1.54038e-05 -1.54038e-05 -1 10.3088 78.7599)" fill="var(--fill-0, #EFEFEF)"/>
<rect id="Rectangle 346604032" width="10.3142" height="10.3142" transform="matrix(1 -1.54038e-05 -1.54038e-05 -1 68.4456 78.7599)" fill="var(--fill-0, #EFEFEF)"/>
<rect id="Rectangle 346604033" width="10.3142" height="10.3142" transform="matrix(1 -1.54038e-05 -1.54038e-05 -1 58.1291 68.4478)" fill="var(--fill-0, #006BF4)"/>
<rect id="Rectangle 346604061" width="10.3142" height="10.3142" transform="matrix(1 -1.54038e-05 -1.54038e-05 -1 83.8244 92.4692)" fill="var(--fill-0, #006BF4)"/>
<rect id="Rectangle 346604034" width="10.3142" height="10.3142" transform="matrix(1 -1.54038e-05 -1.54038e-05 -1 10.3088 58.1337)" fill="var(--fill-0, #006BF4)"/>
<rect id="Rectangle 346604037" width="10.3142" height="10.3142" transform="matrix(1 -1.54038e-05 -1.54038e-05 -1 0.000158878 68.4478)" fill="var(--fill-0, #006BF4)"/>
<rect id="Rectangle 346604040" width="20.626" height="10.3142" transform="matrix(1 -1.54038e-05 -1.54038e-05 -1 109.371 78.761)" fill="var(--fill-0, #EFEFEF)"/>
<rect id="Rectangle 346604041" width="10.3142" height="10.3142" transform="matrix(1 -1.54038e-05 -1.54038e-05 -1 99.0548 68.4478)" fill="var(--fill-0, #006BF4)"/>
<rect id="Rectangle 346604043" width="10.3142" height="10.3142" transform="matrix(1 -1.54038e-05 -1.54038e-05 -1 89.0784 58.1337)" fill="var(--fill-0, #EFEFEF)"/>
<rect id="Rectangle 346604044" width="10.3142" height="10.3142" transform="matrix(1 -1.54038e-05 -1.54038e-05 -1 109.371 58.1337)" fill="var(--fill-0, #EFEFEF)"/>
<rect id="Rectangle 346604062" width="10.3142" height="10.3142" transform="matrix(1 -1.54038e-05 -1.54038e-05 -1 168.438 30.9401)" fill="var(--fill-0, #006BF4)"/>
<rect id="Rectangle 346604063" width="10.3142" height="10.3142" transform="matrix(1 -1.54038e-05 -1.54038e-05 -1 183.82 44.6512)" fill="var(--fill-0, #EFEFEF)"/>
<rect id="Rectangle 346604065" width="10.3142" height="10.3142" transform="matrix(1 -1.54038e-05 -1.54038e-05 -1 199.051 20.6276)" fill="var(--fill-0, #EFEFEF)"/>
<rect id="Rectangle 346604066" width="10.3142" height="10.3142" transform="matrix(1 -1.54038e-05 -1.54038e-05 -1 209.363 10.3152)" fill="var(--fill-0, #EFEFEF)"/>
<path id="Rectangle 346604058" d="M78.7619 37.5471L89.076 37.5469L89.0759 27.2327L78.7617 27.2329L78.7619 37.5471Z" fill="var(--fill-0, #EFEFEF)"/>
<rect id="Rectangle 346604060" width="10.3142" height="10.3142" transform="matrix(1 -1.54038e-05 -1.54038e-05 -1 109.703 10.3143)" fill="var(--fill-0, #EFEFEF)"/>
<rect id="Rectangle 346604067" width="10.3142" height="10.3142" transform="matrix(1 -1.54038e-05 -1.54038e-05 -1 199.047 93.4692)" fill="var(--fill-0, #006BF4)"/>
<rect id="Rectangle 346604068" width="10.3142" height="10.3142" transform="matrix(1 -1.54038e-05 -1.54038e-05 -1 189.07 83.1552)" fill="var(--fill-0, #EFEFEF)"/>
<rect id="Rectangle 346604069" width="10.3142" height="10.3142" transform="matrix(1 -1.54038e-05 -1.54038e-05 -1 209.363 83.1552)" fill="var(--fill-0, #EFEFEF)"/>
<path id="Rectangle 346604070" d="M150.363 68.4692L160.678 68.4691L160.677 58.1549L150.363 58.1551L150.363 68.4692Z" fill="var(--fill-0, #EFEFEF)"/>
</g>
</svg>
