<svg preserveAspectRatio="none" width="100%" height="100%" overflow="visible" style="display: block;" viewBox="0 0 219.677 139.017" fill="none" xmlns="http://www.w3.org/2000/svg">
<g id="Group 1410121304">
<rect id="Rectangle 346604030" width="10.3142" height="10.3142" transform="matrix(1 -1.54038e-05 -1.54038e-05 -1 10.3105 78.7596)" fill="var(--fill-0, #EFEFEF)"/>
<rect id="Rectangle 346604032" width="10.3142" height="10.3142" transform="matrix(1 -1.54038e-05 -1.54038e-05 -1 68.4432 78.7596)" fill="var(--fill-0, #EFEFEF)"/>
<rect id="Rectangle 346604033" width="10.3142" height="10.3142" transform="matrix(1 -1.54038e-05 -1.54038e-05 -1 58.1323 68.4471)" fill="var(--fill-0, #006BF4)"/>
<rect id="Rectangle 346604061" width="9.99055" height="10.0251" transform="matrix(1 -1.54038e-05 -1.54038e-05 -1 35.0024 88.0213)" fill="var(--fill-0, #006BF4)"/>
<rect id="Rectangle 346604034" width="10.3142" height="10.3142" transform="matrix(1 -1.54038e-05 -1.54038e-05 -1 10.3105 58.1346)" fill="var(--fill-0, #006BF4)"/>
<rect id="Rectangle 346604037" width="10.3142" height="10.3142" transform="matrix(1 -1.54038e-05 -1.54038e-05 -1 0.000187692 68.4471)" fill="var(--fill-0, #EFEFEF)"/>
<rect id="Rectangle 346604040" width="20.626" height="10.3142" transform="matrix(1 -1.54038e-05 -1.54038e-05 -1 109.369 78.7636)" fill="var(--fill-0, #EFEFEF)"/>
<rect id="Rectangle 346604041" width="10.3142" height="10.3142" transform="matrix(1 -1.54038e-05 -1.54038e-05 -1 99.0541 68.4471)" fill="var(--fill-0, #006BF4)"/>
<rect id="Rectangle 346604043" width="10.3142" height="10.3142" transform="matrix(1 -1.54038e-05 -1.54038e-05 -1 89.076 58.1346)" fill="var(--fill-0, #EFEFEF)"/>
<rect id="Rectangle 346604044" width="10.3142" height="10.3142" transform="matrix(1 -1.54038e-05 -1.54038e-05 -1 109.369 58.1346)" fill="var(--fill-0, #EFEFEF)"/>
<rect id="Rectangle 346604062" width="10.3142" height="10.3142" transform="matrix(1 -1.54038e-05 -1.54038e-05 -1 168.437 30.9393)" fill="var(--fill-0, #006BF4)"/>
<rect id="Rectangle 346604063" width="10.3142" height="10.3142" transform="matrix(1 -1.54038e-05 -1.54038e-05 -1 183.817 44.6503)" fill="var(--fill-0, #EFEFEF)"/>
<rect id="Rectangle 346604065" width="10.3142" height="10.3142" transform="matrix(1 -1.54038e-05 -1.54038e-05 -1 199.048 20.6268)" fill="var(--fill-0, #EFEFEF)"/>
<rect id="Rectangle 346604066" width="10.3142" height="10.3142" transform="matrix(1 -1.54038e-05 -1.54038e-05 -1 209.363 10.3143)" fill="var(--fill-0, #EFEFEF)"/>
<path id="Rectangle 346604058" d="M78.7607 37.5487L89.0749 37.5485L89.0747 27.2344L78.7606 27.2345L78.7607 37.5487Z" fill="var(--fill-0, #EFEFEF)"/>
<rect id="Rectangle 346604060" width="10.3142" height="10.3142" transform="matrix(1 -1.54038e-05 -1.54038e-05 -1 109.702 10.3143)" fill="var(--fill-0, #006BF4)"/>
<path id="Rectangle 346604068" d="M24.9919 98.0174L34.9923 98.0173L34.9921 88.0156L24.9918 88.0158L24.9919 98.0174Z" fill="var(--fill-0, #FDFDFD)"/>
<path id="Rectangle 346604069" d="M34.9919 108.017L44.992 108.017L44.9919 98.0195L34.9918 98.0197L34.9919 108.017Z" fill="var(--fill-0, #FDFDFD)"/>
<path id="Rectangle 346604070" d="M57.9918 139.017L67.9919 139.017L67.9917 129.019L57.9917 129.019L57.9918 139.017Z" fill="var(--fill-0, #0473FF)"/>
<path id="Rectangle 346604071" d="M98.9918 108.017L108.992 108.017L108.992 98.0191L98.9916 98.0192L98.9918 108.017Z" fill="var(--fill-0, #FDFDFD)"/>
</g>
</svg>
