<svg preserveAspectRatio="none" width="100%" height="100%" overflow="visible" style="display: block;" viewBox="0 0 20 20" fill="none" xmlns="http://www.w3.org/2000/svg">
<g id="TerminalWindow">
<path id="Vector" d="M9.85156 9.75403C9.85162 9.84267 9.83091 9.93019 9.79096 10.0101C9.75101 10.09 9.69286 10.1603 9.62079 10.2157L6.54387 12.5793C6.48073 12.6278 6.40827 12.6639 6.33061 12.6855C6.25295 12.7071 6.17162 12.7138 6.09126 12.7052C6.01091 12.6967 5.93309 12.673 5.86227 12.6355C5.79144 12.5981 5.72899 12.5476 5.67849 12.487C5.62798 12.4264 5.5904 12.3568 5.5679 12.2822C5.54539 12.2076 5.53841 12.1295 5.54734 12.0524C5.55626 11.9752 5.58093 11.9005 5.61993 11.8325C5.65894 11.7645 5.7115 11.7045 5.77464 11.656L8.25079 9.75403L5.77464 7.85204C5.7115 7.80354 5.65894 7.74357 5.61993 7.67557C5.58093 7.60756 5.55626 7.53284 5.54734 7.45568C5.53841 7.37852 5.54539 7.30042 5.5679 7.22585C5.5904 7.15128 5.62798 7.0817 5.67849 7.02107C5.72899 6.96045 5.79144 6.90997 5.86227 6.87252C5.93309 6.83507 6.01091 6.81138 6.09126 6.80281C6.17162 6.79424 6.25295 6.80094 6.33061 6.82255C6.40827 6.84416 6.48073 6.88024 6.54387 6.92874L9.62079 9.29238C9.69286 9.34778 9.75101 9.41804 9.79096 9.49795C9.83091 9.57787 9.85162 9.66539 9.85156 9.75403ZM13.5439 11.5268H10.4669C10.3037 11.5268 10.1472 11.589 10.0318 11.6998C9.9164 11.8106 9.85156 11.9609 9.85156 12.1177C9.85156 12.2744 9.9164 12.4247 10.0318 12.5355C10.1472 12.6463 10.3037 12.7086 10.4669 12.7086H13.5439C13.7071 12.7086 13.8636 12.6463 13.979 12.5355C14.0944 12.4247 14.1593 12.2744 14.1593 12.1177C14.1593 11.9609 14.0944 11.8106 13.979 11.6998C13.8636 11.589 13.7071 11.5268 13.5439 11.5268ZM17.8516 4.43585V15.0722C17.8516 15.3856 17.7219 15.6862 17.4911 15.9079C17.2603 16.1295 16.9472 16.254 16.6208 16.254H3.08233C2.75591 16.254 2.44286 16.1295 2.21205 15.9079C1.98123 15.6862 1.85156 15.3856 1.85156 15.0722V4.43585C1.85156 4.12241 1.98123 3.82181 2.21205 3.60017C2.44286 3.37854 2.75591 3.25403 3.08233 3.25403H16.6208C16.9472 3.25403 17.2603 3.37854 17.4911 3.60017C17.7219 3.82181 17.8516 4.12241 17.8516 4.43585ZM16.6208 15.0722V4.43585H3.08233V15.0722H16.6208Z" fill="var(--fill-0, #A1A1A1)"/>
</g>
</svg>
