<svg preserveAspectRatio="none" width="100%" height="100%" overflow="visible" style="display: block;" viewBox="0 0 20 20" fill="none" xmlns="http://www.w3.org/2000/svg">
<g id="MarkdownLogo">
<path id="Vector" d="M18.125 3.75H1.875C1.54348 3.75 1.22554 3.8817 0.991117 4.11612C0.756696 4.35054 0.625 4.66848 0.625 5V15C0.625 15.3315 0.756696 15.6495 0.991117 15.8839C1.22554 16.1183 1.54348 16.25 1.875 16.25H18.125C18.4565 16.25 18.7745 16.1183 19.0089 15.8839C19.2433 15.6495 19.375 15.3315 19.375 15V5C19.375 4.66848 19.2433 4.35054 19.0089 4.11612C18.7745 3.8817 18.4565 3.75 18.125 3.75ZM18.125 15H1.875V5H18.125V15ZM10 8.125V11.875C10 12.0408 9.93415 12.1997 9.81694 12.3169C9.69973 12.4342 9.54076 12.5 9.375 12.5C9.20924 12.5 9.05027 12.4342 8.93306 12.3169C8.81585 12.1997 8.75 12.0408 8.75 11.875V9.63359L7.31719 11.0672C7.25914 11.1253 7.19021 11.1714 7.11434 11.2029C7.03846 11.2343 6.95713 11.2505 6.875 11.2505C6.79287 11.2505 6.71154 11.2343 6.63566 11.2029C6.55979 11.1714 6.49086 11.1253 6.43281 11.0672L5 9.63359V11.875C5 12.0408 4.93415 12.1997 4.81694 12.3169C4.69973 12.4342 4.54076 12.5 4.375 12.5C4.20924 12.5 4.05027 12.4342 3.93306 12.3169C3.81585 12.1997 3.75 12.0408 3.75 11.875V8.125C3.7499 8.00132 3.78651 7.88038 3.85517 7.77751C3.92384 7.67464 4.02149 7.59446 4.13576 7.54711C4.25002 7.49977 4.37576 7.48739 4.49707 7.51154C4.61837 7.5357 4.72978 7.59531 4.81719 7.68281L6.875 9.74141L8.93281 7.68281C9.02022 7.59531 9.13163 7.5357 9.25293 7.51154C9.37424 7.48739 9.49998 7.49977 9.61424 7.54711C9.72851 7.59446 9.82616 7.67464 9.89483 7.77751C9.96349 7.88038 10.0001 8.00132 10 8.125ZM16.0672 9.55781C16.1253 9.61586 16.1714 9.68479 16.2029 9.76066C16.2343 9.83654 16.2505 9.91787 16.2505 10C16.2505 10.0821 16.2343 10.1635 16.2029 10.2393C16.1714 10.3152 16.1253 10.3841 16.0672 10.4422L14.1922 12.3172C14.1341 12.3753 14.0652 12.4214 13.9893 12.4529C13.9135 12.4843 13.8321 12.5005 13.75 12.5005C13.6679 12.5005 13.5865 12.4843 13.5107 12.4529C13.4348 12.4214 13.3659 12.3753 13.3078 12.3172L11.4328 10.4422C11.3155 10.3249 11.2497 10.1659 11.2497 10C11.2497 9.83415 11.3155 9.67509 11.4328 9.55781C11.5501 9.44054 11.7091 9.37465 11.875 9.37465C12.0409 9.37465 12.1999 9.44054 12.3172 9.55781L13.125 10.3664V8.125C13.125 7.95924 13.1908 7.80027 13.3081 7.68306C13.4253 7.56585 13.5842 7.5 13.75 7.5C13.9158 7.5 14.0747 7.56585 14.1919 7.68306C14.3092 7.80027 14.375 7.95924 14.375 8.125V10.3664L15.1828 9.55781C15.2409 9.4997 15.3098 9.4536 15.3857 9.42215C15.4615 9.3907 15.5429 9.37451 15.625 9.37451C15.7071 9.37451 15.7885 9.3907 15.8643 9.42215C15.9402 9.4536 16.0091 9.4997 16.0672 9.55781Z" fill="var(--fill-0, #8F8F8F)"/>
</g>
</svg>
