<svg preserveAspectRatio="none" width="100%" height="100%" overflow="visible" style="display: block;" viewBox="0 0 40.005 40.0042" fill="none" xmlns="http://www.w3.org/2000/svg">
<g id="Group">
<path id="Vector" d="M40.005 10H37.9969V11.995H40.005V10Z" fill="var(--fill-0, #006BF4)"/>
<path id="Vector_2" d="M37.9969 11.9962H36.0019V14.0044H37.9969V11.9962Z" fill="var(--fill-0, #006BF4)"/>
<path id="Vector_3" d="M37.9969 8.00781H36.0019V10.0028H37.9969V8.00781Z" fill="var(--fill-0, #006BF4)"/>
<path id="Vector_4" d="M36.0019 10H34.0069V11.995H36.0019V10Z" fill="var(--fill-0, #006BF4)"/>
<path id="Vector_5" d="M34.0069 36.0019V33.9937H36.0019V31.9987H34.0069V30.0037H31.9987V31.9987H30.0037V33.9937H31.9987V36.0019H34.0069Z" fill="var(--fill-0, #006BF4)"/>
<path id="Vector_6" d="M34.0068 16H31.9987V20.0031H34.0068V16Z" fill="var(--fill-0, #3389F6)"/>
<path id="Vector_7" d="M31.9987 20.0039H30.0037V21.9989H31.9987V20.0039Z" fill="var(--fill-0, #3389F6)"/>
<path id="Vector_8" d="M31.9987 4.00391H30.0037V5.99891H31.9987V4.00391Z" fill="var(--fill-0, #3389F6)"/>
<path id="Vector_9" d="M30.0037 21.9961H27.9956V24.0042H30.0037V21.9961Z" fill="var(--fill-0, #3389F6)"/>
<path id="Vector_10" d="M30.0037 6H27.9956V8.00813H30.0037V6Z" fill="var(--fill-0, #3389F6)"/>
<path id="Vector_11" d="M27.9956 24.0039H26.0006V25.9989H27.9956V24.0039Z" fill="var(--fill-0, #3389F6)"/>
<path id="Vector_12" d="M27.9956 8.00781H26.0006V10.0028H27.9956V8.00781Z" fill="var(--fill-0, #3389F6)"/>
<path id="Vector_13" d="M26.0006 26H24.0056V27.995H26.0006V26Z" fill="var(--fill-0, #3389F6)"/>
<path id="Vector_14" d="M26.0006 10H24.0056V11.995H26.0006V10Z" fill="var(--fill-0, #3389F6)"/>
<path id="Vector_15" d="M24.0056 37.9961H21.9975V40.0042H24.0056V37.9961Z" fill="var(--fill-0, #3389F6)"/>
<path id="Vector_16" d="M24.0056 27.9961H21.9975V30.0042H24.0056V27.9961Z" fill="var(--fill-0, #3389F6)"/>
<path id="Vector_17" d="M21.9975 11.9962V14.0044H20.0025V15.9994H31.9987V14.0044H24.0056V11.9962H21.9975Z" fill="var(--fill-0, #3389F6)"/>
<path id="Vector_18" d="M21.9975 30.0037H20.0025V31.9987H21.9975V30.0037Z" fill="var(--fill-0, #3389F6)"/>
<path id="Vector_19" d="M31.9987 1.995V4.00312H34.0069V0H18.0075V1.995H31.9987Z" fill="var(--fill-0, #3389F6)"/>
<path id="Vector_20" d="M20.0025 32H18.0075V33.995H20.0025V32Z" fill="var(--fill-0, #3389F6)"/>
<path id="Vector_21" d="M18.0075 33.9922H15.9994V36.0003H18.0075V33.9922Z" fill="var(--fill-0, #3389F6)"/>
<path id="Vector_22" d="M18.0075 1.99609H15.9994V4.00422H18.0075V1.99609Z" fill="var(--fill-0, #3389F6)"/>
<path id="Vector_23" d="M15.9994 36H14.0044V37.995H15.9994V36Z" fill="var(--fill-0, #3389F6)"/>
<path id="Vector_24" d="M15.9994 20.0039H4.00311V21.9989H14.0044V26.002H15.9994V20.0039Z" fill="var(--fill-0, #3389F6)"/>
<path id="Vector_25" d="M15.9994 4.00391H14.0044V5.99891H15.9994V4.00391Z" fill="var(--fill-0, #3389F6)"/>
<path id="Vector_26" d="M14.0044 37.9961H11.9963V40.0042H14.0044V37.9961Z" fill="var(--fill-0, #3389F6)"/>
<path id="Vector_27" d="M14.0044 26H11.9963V31.9981H14.0044V26Z" fill="var(--fill-0, #3389F6)"/>
<path id="Vector_28" d="M14.0044 6H11.9963V8.00813H14.0044V6Z" fill="var(--fill-0, #3389F6)"/>
<path id="Vector_29" d="M11.9962 32H10.0012V37.9981H11.9962V32Z" fill="var(--fill-0, #3389F6)"/>
<path id="Vector_30" d="M11.9962 8.00781H10.0012V10.0028H11.9962V8.00781Z" fill="var(--fill-0, #3389F6)"/>
<path id="Vector_31" d="M10.0012 10H8.00623V11.995H10.0012V10Z" fill="var(--fill-0, #3389F6)"/>
<path id="Vector_32" d="M8.00625 11.9962H5.99812V14.0044H8.00625V11.9962Z" fill="var(--fill-0, #3389F6)"/>
<path id="Vector_33" d="M5.99811 27.9961H4.00311V30.0042H5.99811V27.9961Z" fill="var(--fill-0, #006BF4)"/>
<path id="Vector_34" d="M5.99811 14.0039H4.00311V15.9989H5.99811V14.0039Z" fill="var(--fill-0, #3389F6)"/>
<path id="Vector_35" d="M4.00313 0V1.995H2.00813V4.00312H4.00313V5.99812H5.99813V4.00312H8.00625V1.995H5.99813V0H4.00313Z" fill="var(--fill-0, #006BF4)"/>
<path id="Vector_36" d="M4.00313 30.0037H2.00813V31.9987H4.00313V30.0037Z" fill="var(--fill-0, #006BF4)"/>
<path id="Vector_37" d="M4.00312 26H2.00812V27.995H4.00312V26Z" fill="var(--fill-0, #006BF4)"/>
<path id="Vector_38" d="M4.00312 16H2.00812V20.0031H4.00312V16Z" fill="var(--fill-0, #3389F6)"/>
<path id="Vector_39" d="M2.00813 27.9961H0V30.0042H2.00813V27.9961Z" fill="var(--fill-0, #006BF4)"/>
</g>
</svg>
