<svg preserveAspectRatio="none" width="100%" height="100%" overflow="visible" style="display: block;" viewBox="0 0 12 7" fill="none" xmlns="http://www.w3.org/2000/svg">
<path id="Vector" d="M11.8402 0.996255L6.38589 6.82894C6.33523 6.88317 6.27508 6.92619 6.20887 6.95554C6.14265 6.98489 6.07168 7 6 7C5.92832 7 5.85735 6.98489 5.79113 6.95554C5.72492 6.92619 5.66476 6.88317 5.61411 6.82894L0.159841 0.996255C0.0574964 0.88681 0 0.738371 0 0.583592C0 0.428814 0.0574964 0.280375 0.159841 0.17093C0.262185 0.0614851 0.400994 0 0.54573 0C0.690467 0 0.829275 0.0614851 0.93162 0.17093L6 5.59168L11.0684 0.17093C11.1191 0.116738 11.1792 0.0737513 11.2454 0.0444231C11.3116 0.0150948 11.3826 0 11.4543 0C11.5259 0 11.5969 0.0150948 11.6631 0.0444231C11.7293 0.0737513 11.7895 0.116738 11.8402 0.17093C11.8908 0.225122 11.931 0.289456 11.9585 0.360261C11.9859 0.431066 12 0.506954 12 0.583592C12 0.660231 11.9859 0.736119 11.9585 0.806924C11.931 0.877728 11.8908 0.942063 11.8402 0.996255Z" fill="var(--fill-0, #848483)"/>
</svg>
