<svg preserveAspectRatio="none" width="100%" height="100%" overflow="visible" style="display: block;" viewBox="0 0 20 20" fill="none" xmlns="http://www.w3.org/2000/svg">
<g id="ChatDots">
<path id="Vector" d="M9.0625 10C9.0625 9.81458 9.11748 9.63332 9.2205 9.47915C9.32351 9.32498 9.46993 9.20482 9.64123 9.13386C9.81254 9.06291 10.001 9.04434 10.1829 9.08051C10.3648 9.11669 10.5318 9.20598 10.6629 9.33709C10.794 9.4682 10.8833 9.63525 10.9195 9.8171C10.9557 9.99896 10.9371 10.1875 10.8661 10.3588C10.7952 10.5301 10.675 10.6765 10.5208 10.7795C10.3667 10.8825 10.1854 10.9375 10 10.9375C9.75136 10.9375 9.5129 10.8387 9.33709 10.6629C9.16127 10.4871 9.0625 10.2486 9.0625 10ZM6.5625 10.9375C6.74792 10.9375 6.92918 10.8825 7.08335 10.7795C7.23752 10.6765 7.35768 10.5301 7.42864 10.3588C7.49959 10.1875 7.51816 9.99896 7.48199 9.8171C7.44581 9.63525 7.35652 9.4682 7.22541 9.33709C7.0943 9.20598 6.92726 9.11669 6.7454 9.08051C6.56354 9.04434 6.37504 9.06291 6.20373 9.13386C6.03243 9.20482 5.88601 9.32498 5.783 9.47915C5.67998 9.63332 5.625 9.81458 5.625 10C5.625 10.2486 5.72377 10.4871 5.89959 10.6629C6.0754 10.8387 6.31386 10.9375 6.5625 10.9375ZM13.4375 10.9375C13.6229 10.9375 13.8042 10.8825 13.9583 10.7795C14.1125 10.6765 14.2327 10.5301 14.3036 10.3588C14.3746 10.1875 14.3932 9.99896 14.357 9.8171C14.3208 9.63525 14.2315 9.4682 14.1004 9.33709C13.9693 9.20598 13.8023 9.11669 13.6204 9.08051C13.4385 9.04434 13.25 9.06291 13.0787 9.13386C12.9074 9.20482 12.761 9.32498 12.658 9.47915C12.555 9.63332 12.5 9.81458 12.5 10C12.5 10.2486 12.5988 10.4871 12.7746 10.6629C12.9504 10.8387 13.1889 10.9375 13.4375 10.9375ZM18.125 5V15C18.125 15.3315 17.9933 15.6495 17.7589 15.8839C17.5245 16.1183 17.2065 16.25 16.875 16.25H6.48438L3.9375 18.45L3.93047 18.4555C3.70549 18.6462 3.41995 18.7506 3.125 18.75C2.94138 18.7496 2.76007 18.7091 2.59375 18.6312C2.37802 18.5315 2.19554 18.3719 2.06809 18.1713C1.94065 17.9707 1.87361 17.7377 1.875 17.5V5C1.875 4.66848 2.0067 4.35054 2.24112 4.11612C2.47554 3.8817 2.79348 3.75 3.125 3.75H16.875C17.2065 3.75 17.5245 3.8817 17.7589 4.11612C17.9933 4.35054 18.125 4.66848 18.125 5ZM16.875 5H3.125V17.5L5.84141 15.1562C5.95434 15.0566 6.09943 15.0012 6.25 15H16.875V5Z" fill="var(--fill-0, #8F8F8F)"/>
</g>
</svg>
