<svg preserveAspectRatio="none" width="100%" height="100%" overflow="visible" style="display: block;" viewBox="0 0 56 22" fill="none" xmlns="http://www.w3.org/2000/svg">
<g id="nexus">
<path d="M6.69654 0.305555H11.6114V21.6944H6.26649L4.0855 8.89167H3.80904L4.91489 21.6944H0V0.305555H5.31423L7.61808 13.2H7.89454L6.69654 0.305555Z" fill="var(--fill-0, #0068E9)"/>
<path d="M20.2238 4.55278H17.2441V8.34167H20.193V12.5889H17.2441V17.4472H20.2545V21.6944H12.3292V0.305555H20.2238V4.55278Z" fill="var(--fill-0, #0068E9)"/>
<path d="M25.8236 0.305555L26.3765 8.73889H26.7451L27.298 0.305555H32.3972L30.8921 10.9694L32.4587 21.6944H27.298L26.7144 13.0472H26.3765L25.7929 21.6944H20.6629L22.1988 10.9694L20.6937 0.305555H25.8236Z" fill="var(--fill-0, #0068E9)"/>
<path d="M32.8772 0.305555H37.7921V16.7444C37.7921 16.9278 37.8126 17.0806 37.8535 17.2028C37.8945 17.325 37.9355 17.4269 37.9764 17.5083C38.0378 17.5898 38.1095 17.6509 38.1914 17.6917C38.2938 17.7324 38.386 17.7528 38.4679 17.7528C38.5703 17.7528 38.6625 17.7324 38.7444 17.6917C38.8263 17.6509 38.898 17.5898 38.9594 17.5083C39.0208 17.4269 39.0618 17.325 39.0823 17.2028C39.1232 17.0806 39.1437 16.9278 39.1437 16.7444V0.305555H44.0586V16.3472C44.0586 17.2843 43.9255 18.1093 43.6593 18.8222C43.4135 19.5148 43.0449 20.0954 42.5534 20.5639C42.0824 21.0324 41.4885 21.3889 40.7718 21.6333C40.0755 21.8778 39.2871 22 38.4065 22C37.5259 22 36.7374 21.888 36.0412 21.6639C35.3654 21.4194 34.792 21.063 34.321 20.5944C33.85 20.1056 33.4916 19.5148 33.2458 18.8222C33.0001 18.1093 32.8772 17.2843 32.8772 16.3472V0.305555Z" fill="var(--fill-0, #0068E9)"/>
<path d="M55.9693 7.76111H51.0544V5.25556C51.0544 4.92963 50.993 4.68519 50.8701 4.52222C50.7472 4.33889 50.5731 4.24722 50.3479 4.24722C50.1226 4.24722 49.9485 4.33889 49.8257 4.52222C49.7233 4.68519 49.6721 4.92963 49.6721 5.25556V6.84444C49.6721 7.10926 49.6926 7.34352 49.7335 7.54722C49.7745 7.73056 49.8769 7.91389 50.0407 8.09722C50.225 8.28056 50.481 8.47407 50.8086 8.67778C51.1568 8.88148 51.6278 9.13611 52.2217 9.44167L53.1739 9.9C53.7269 10.1852 54.1774 10.5009 54.5255 10.8472C54.8941 11.1731 55.1808 11.5704 55.3856 12.0389C55.6109 12.487 55.7645 13.0269 55.8464 13.6583C55.9488 14.2898 56 15.0435 56 15.9194V16.3472C56 18.1602 55.4983 19.5556 54.4948 20.5333C53.5118 21.5111 52.109 22 50.2864 22C48.4638 22 47.0815 21.5213 46.1395 20.5639C45.1975 19.5861 44.7265 18.1806 44.7265 16.3472V14.2389H49.6414V16.7444C49.6414 17.0704 49.7028 17.325 49.8257 17.5083C49.9485 17.6713 50.1226 17.7528 50.3479 17.7528C50.5936 17.7528 50.7779 17.6713 50.9008 17.5083C51.0237 17.3454 51.0851 17.0907 51.0851 16.7444V15.0944C51.0851 14.8093 51.0646 14.575 51.0237 14.3917C50.9827 14.2083 50.8803 14.0352 50.7165 13.8722C50.5527 13.6889 50.3069 13.5056 49.9793 13.3222C49.6721 13.1185 49.2523 12.8741 48.7198 12.5889L47.6447 12.0694C47.0918 11.7639 46.6207 11.438 46.2317 11.0917C45.863 10.7454 45.5661 10.338 45.3408 9.86944C45.136 9.38056 44.9825 8.82037 44.8801 8.18889C44.7981 7.55741 44.7572 6.8037 44.7572 5.92778V5.62222C44.7572 3.78889 45.2282 2.39352 46.1702 1.43611C47.1327 0.478704 48.5048 0 50.2864 0C52.109 0 53.5118 0.488889 54.4948 1.46667C55.4778 2.44444 55.9693 3.82963 55.9693 5.62222V7.76111Z" fill="var(--fill-0, #0068E9)"/>
</g>
</svg>
