<svg preserveAspectRatio="none" width="100%" height="100%" overflow="visible" style="display: block;" viewBox="0 0 33.9937 41.9989" fill="none" xmlns="http://www.w3.org/2000/svg">
<g id="Group">
<path id="Vector" d="M30.0037 5.99891V8.00703H31.9987V28.0095H33.9937V5.99891H31.9987V4.00391H27.9956V5.99891H30.0037Z" fill="var(--fill-0, #006BF4)"/>
<path id="Vector_2" d="M31.9988 28.0078H30.0038V31.9978H31.9988V28.0078Z" fill="var(--fill-0, #006BF4)"/>
<path id="Vector_3" d="M30.0037 32H27.9956V34.0081H30.0037V32Z" fill="var(--fill-0, #006BF4)"/>
<path id="Vector_4" d="M30.0037 8.00781H27.9956V28.0103H30.0037V8.00781Z" fill="var(--fill-0, #006BF4)"/>
<path id="Vector_5" d="M27.9956 34.0078H26.0006V36.0028H27.9956V34.0078Z" fill="var(--fill-0, #006BF4)"/>
<path id="Vector_6" d="M27.9956 28.0078H26.0006V31.9978H27.9956V28.0078Z" fill="var(--fill-0, #006BF4)"/>
<path id="Vector_7" d="M26.0006 36H24.0056V38.0081H26.0006V36Z" fill="var(--fill-0, #006BF4)"/>
<path id="Vector_8" d="M26.0006 32H24.0056V34.0081H26.0006V32Z" fill="var(--fill-0, #006BF4)"/>
<path id="Vector_9" d="M27.9956 6H24.0056V8.00812H27.9956V6Z" fill="var(--fill-0, #006BF4)"/>
<path id="Vector_10" d="M27.9956 2.00781H24.0056V4.00281H27.9956V2.00781Z" fill="var(--fill-0, #006BF4)"/>
<path id="Vector_11" d="M24.0056 38.0117H20.0025V40.0067H24.0056V38.0117Z" fill="var(--fill-0, #006BF4)"/>
<path id="Vector_12" d="M24.0056 34.0078H20.0025V36.0028H24.0056V34.0078Z" fill="var(--fill-0, #006BF4)"/>
<path id="Vector_13" d="M14.0044 18.007V14.0039H11.9963V18.007H10.0013V28.0083H11.9963V30.0033H21.9975V28.0083H24.0056V18.007H21.9975V14.0039H20.0025V18.007H14.0044ZM17.9944 24.0052H15.9994V20.002H17.9944V24.0052Z" fill="var(--fill-0, #3389F6)"/>
<path id="Vector_14" d="M20.0025 40.0039H14.0044V41.9989H20.0025V40.0039Z" fill="var(--fill-0, #006BF4)"/>
<path id="Vector_15" d="M20.0025 36H14.0044V38.0081H20.0025V36Z" fill="var(--fill-0, #006BF4)"/>
<path id="Vector_16" d="M20.0025 12.0078H14.0044V14.0028H20.0025V12.0078Z" fill="var(--fill-0, #3389F6)"/>
<path id="Vector_17" d="M14.0044 38.0117H10.0013V40.0067H14.0044V38.0117Z" fill="var(--fill-0, #006BF4)"/>
<path id="Vector_18" d="M14.0044 34.0078H10.0013V36.0028H14.0044V34.0078Z" fill="var(--fill-0, #006BF4)"/>
<path id="Vector_19" d="M24.0056 4.00391H10.0013V5.99891H24.0056V4.00391Z" fill="var(--fill-0, #006BF4)"/>
<path id="Vector_20" d="M24.0056 0H10.0013V2.00813H24.0056V0Z" fill="var(--fill-0, #006BF4)"/>
<path id="Vector_21" d="M10.0012 36H7.99312V38.0081H10.0012V36Z" fill="var(--fill-0, #006BF4)"/>
<path id="Vector_22" d="M10.0012 32H7.99312V34.0081H10.0012V32Z" fill="var(--fill-0, #006BF4)"/>
<path id="Vector_23" d="M10.0012 6H5.99812V8.00812H10.0012V6Z" fill="var(--fill-0, #006BF4)"/>
<path id="Vector_24" d="M10.0012 2.00781H5.99812V4.00281H10.0012V2.00781Z" fill="var(--fill-0, #006BF4)"/>
<path id="Vector_25" d="M7.99312 34.0078H5.99812V36.0028H7.99312V34.0078Z" fill="var(--fill-0, #006BF4)"/>
<path id="Vector_26" d="M7.99312 28.0078H5.99812V31.9978H7.99312V28.0078Z" fill="var(--fill-0, #006BF4)"/>
<path id="Vector_27" d="M5.99813 32H4.00313V34.0081H5.99813V32Z" fill="var(--fill-0, #006BF4)"/>
<path id="Vector_28" d="M5.99813 8.00781H4.00313V28.0103H5.99813V8.00781Z" fill="var(--fill-0, #006BF4)"/>
<path id="Vector_29" d="M5.99812 4.00391H1.995V5.99891H5.99812V4.00391Z" fill="var(--fill-0, #006BF4)"/>
<path id="Vector_30" d="M4.00312 28.0078H1.995V31.9978H4.00312V28.0078Z" fill="var(--fill-0, #006BF4)"/>
<path id="Vector_31" d="M1.995 6H0V28.0106H1.995V6Z" fill="var(--fill-0, #006BF4)"/>
</g>
</svg>
