<svg preserveAspectRatio="none" width="100%" height="100%" overflow="visible" style="display: block;" viewBox="0 0 20 20" fill="none" xmlns="http://www.w3.org/2000/svg">
<g id="Copy">
<path id="Vector" d="M16.4167 3H7.08333C6.92862 3 6.78025 3.06146 6.67085 3.17085C6.56146 3.28025 6.5 3.42862 6.5 3.58333V6.5H3.58333C3.42862 6.5 3.28025 6.56146 3.17085 6.67085C3.06146 6.78025 3 6.92862 3 7.08333V16.4167C3 16.5714 3.06146 16.7197 3.17085 16.8291C3.28025 16.9385 3.42862 17 3.58333 17H12.9167C13.0714 17 13.2197 16.9385 13.3291 16.8291C13.4385 16.7197 13.5 16.5714 13.5 16.4167V13.5H16.4167C16.5714 13.5 16.7197 13.4385 16.8291 13.3291C16.9385 13.2197 17 13.0714 17 12.9167V3.58333C17 3.42862 16.9385 3.28025 16.8291 3.17085C16.7197 3.06146 16.5714 3 16.4167 3ZM12.3333 15.8333H4.16667V7.66667H12.3333V15.8333ZM15.8333 12.3333H13.5V7.08333C13.5 6.92862 13.4385 6.78025 13.3291 6.67085C13.2197 6.56146 13.0714 6.5 12.9167 6.5H7.66667V4.16667H15.8333V12.3333Z" fill="var(--fill-0, #A1A1A1)"/>
</g>
</svg>
