<svg preserveAspectRatio="none" width="100%" height="100%" overflow="visible" style="display: block;" viewBox="0 0 37.9969 37.995" fill="none" xmlns="http://www.w3.org/2000/svg">
<g id="Group">
<path id="Vector" d="M37.9969 18.0078H36.0019V20.0028H37.9969V18.0078Z" fill="var(--fill-0, #006BF4)"/>
<path id="Vector_2" d="M36.0019 20.0039H33.9937V21.9989H36.0019V20.0039Z" fill="var(--fill-0, #006BF4)"/>
<path id="Vector_3" d="M36.0019 16H33.9937V18.0081H36.0019V16Z" fill="var(--fill-0, #006BF4)"/>
<path id="Vector_4" d="M33.9937 21.9961H31.9987V24.0042H33.9937V21.9961Z" fill="var(--fill-0, #006BF4)"/>
<path id="Vector_5" d="M33.9937 14.0039H31.9987V15.9989H33.9937V14.0039Z" fill="var(--fill-0, #006BF4)"/>
<path id="Vector_6" d="M30.0037 30.002H23.9925V31.997H31.9987V24.0039H30.0037V30.002Z" fill="var(--fill-0, #006BF4)"/>
<path id="Vector_7" d="M17.9944 20.0025H15.9994V18.0075H13.9913V15.9994H11.9962V18.0075H10.0013V20.0025H11.9962V21.9975H13.9913V24.0056H15.9994V26.0006H17.9944V24.0056H20.0025V21.9975H21.9975V20.0025H23.9925V18.0075H26.0006V15.9994H27.9956V14.0044H26.0006V11.9963H23.9925V14.0044H21.9975V15.9994H20.0025V18.0075H17.9944V20.0025Z" fill="var(--fill-0, #3389F6)"/>
<path id="Vector_8" d="M30.0037 8.00813V14.0062H31.9987V6H23.9925V8.00813H30.0037Z" fill="var(--fill-0, #006BF4)"/>
<path id="Vector_9" d="M23.9925 32H21.9975V34.0081H23.9925V32Z" fill="var(--fill-0, #006BF4)"/>
<path id="Vector_10" d="M23.9925 4.00391H21.9975V5.99891H23.9925V4.00391Z" fill="var(--fill-0, #006BF4)"/>
<path id="Vector_11" d="M21.9975 34.0078H20.0025V36.0028H21.9975V34.0078Z" fill="var(--fill-0, #006BF4)"/>
<path id="Vector_12" d="M21.9975 2.00781H20.0025V4.00281H21.9975V2.00781Z" fill="var(--fill-0, #006BF4)"/>
<path id="Vector_13" d="M20.0025 36H17.9944V37.995H20.0025V36Z" fill="var(--fill-0, #006BF4)"/>
<path id="Vector_14" d="M20.0025 1.11759e-07H17.9944V2.00813H20.0025V1.11759e-07Z" fill="var(--fill-0, #006BF4)"/>
<path id="Vector_15" d="M17.9944 34.0078H15.9994V36.0028H17.9944V34.0078Z" fill="var(--fill-0, #006BF4)"/>
<path id="Vector_16" d="M17.9944 2.00781H15.9994V4.00281H17.9944V2.00781Z" fill="var(--fill-0, #006BF4)"/>
<path id="Vector_17" d="M15.9994 32H13.9913V34.0081H15.9994V32Z" fill="var(--fill-0, #006BF4)"/>
<path id="Vector_18" d="M15.9994 4.00391H13.9913V5.99891H15.9994V4.00391Z" fill="var(--fill-0, #006BF4)"/>
<path id="Vector_19" d="M7.99312 30.002V24.0039H5.99812V31.997H13.9912V30.002H7.99312Z" fill="var(--fill-0, #006BF4)"/>
<path id="Vector_20" d="M7.99312 8.00813H13.9912V6H5.99812V14.0062H7.99312V8.00813Z" fill="var(--fill-0, #006BF4)"/>
<path id="Vector_21" d="M5.99813 21.9961H4.00313V24.0042H5.99813V21.9961Z" fill="var(--fill-0, #006BF4)"/>
<path id="Vector_22" d="M5.99813 14.0039H4.00313V15.9989H5.99813V14.0039Z" fill="var(--fill-0, #006BF4)"/>
<path id="Vector_23" d="M4.00312 20.0039H1.995V21.9989H4.00312V20.0039Z" fill="var(--fill-0, #006BF4)"/>
<path id="Vector_24" d="M4.00312 16H1.995V18.0081H4.00312V16Z" fill="var(--fill-0, #006BF4)"/>
<path id="Vector_25" d="M1.995 18.0078H0V20.0028H1.995V18.0078Z" fill="var(--fill-0, #006BF4)"/>
</g>
</svg>
