<svg preserveAspectRatio="none" width="100%" height="100%" overflow="visible" style="display: block;" viewBox="0 0 23.9612 23.9994" fill="none" xmlns="http://www.w3.org/2000/svg">
<g id="Sidebar">
<path id="Subtract" d="M18.6771 20.0709C20.534 20.9797 22.7946 20.1663 23.2979 18.1612C23.5835 17.0233 23.7951 15.8148 23.8958 14.5863C24.0991 12.1043 23.8478 9.56664 22.8639 7.37072L22.8625 7.37132C22.8188 7.2767 22.7743 7.18235 22.7292 7.0883C22.3907 6.43787 21.7566 5.64012 20.8228 5.11228C19.7702 4.51733 18.3081 4.24807 16.3894 4.96792C15.9823 5.12064 15.5679 5.31798 15.1523 5.5534C15.6743 6.44285 16.0483 7.64245 16.078 9.22423C16.1048 10.6538 15.8733 12.0077 15.5185 13.2138L16.0094 13.3964C18.5076 14.3254 20.2301 16.8742 19.0887 19.2827C18.9642 19.5454 18.8273 19.8091 18.6771 20.0709Z" fill="var(--fill-0, #0068E9)"/>
<path id="Subtract_2" d="M7.27734 19.1226C7.56449 19.036 7.86775 18.9108 8.18602 18.7366C9.53385 17.9991 10.5532 16.7947 11.2778 15.6132C11.4116 15.3951 11.5359 15.1768 11.651 14.9611C12.2282 13.8787 13.4962 13.2457 14.6459 13.6732L16.0025 14.1776C18.0266 14.9304 19.3486 17.0166 18.4237 18.9681C17.7315 20.4287 16.6528 21.8776 15.0388 22.7935C13.7052 23.5503 12.3412 23.9407 11.0662 23.9994C9.67699 23.7639 8.76561 23.16 8.185 22.3534C7.57026 21.4995 7.29692 20.3773 7.27734 19.1226Z" fill="var(--fill-0, #0068E9)"/>
<path id="Subtract_3" d="M10.6504 0.107447C14.0829 -0.29486 16.6333 0.465738 18.5692 1.83483C19.5978 2.56228 20.4616 3.46776 21.1943 4.4774L21.1864 4.47294C19.9368 3.76662 18.2464 3.48669 16.1314 4.28016C13.2922 5.34536 10.2314 8.34701 8.60183 11.4081C7.54488 13.3935 6.50256 16.438 6.54197 19.1251C6.56172 20.472 6.85388 21.763 7.58805 22.7828C7.84363 23.1378 8.14927 23.4551 8.50859 23.728C5.894 23.0766 2.60416 21.2627 0.831196 17.0817C-0.716023 13.4331 0.0196397 9.39424 2.02426 6.14804C4.03194 2.89689 7.27412 0.503171 10.6504 0.107447Z" fill="var(--fill-0, #0068E9)"/>
</g>
</svg>
