<svg preserveAspectRatio="none" width="100%" height="100%" overflow="visible" style="display: block;" viewBox="0 0 20 20" fill="none" xmlns="http://www.w3.org/2000/svg">
<g id="ArrowSquareUpRight">
<path id="Vector" d="M16.6667 2H3.33333C2.97971 2 2.64057 2.14048 2.39052 2.39052C2.14048 2.64057 2 2.97971 2 3.33333V16.6667C2 17.0203 2.14048 17.3594 2.39052 17.6095C2.64057 17.8595 2.97971 18 3.33333 18H16.6667C17.0203 18 17.3594 17.8595 17.6095 17.6095C17.8595 17.3594 18 17.0203 18 16.6667V3.33333C18 2.97971 17.8595 2.64057 17.6095 2.39052C17.3594 2.14048 17.0203 2 16.6667 2ZM16.6667 16.6667H3.33333V3.33333H16.6667V16.6667ZM6.86167 13.1383C6.79968 13.0764 6.75051 13.0029 6.71696 12.922C6.68341 12.841 6.66614 12.7543 6.66614 12.6667C6.66614 12.5791 6.68341 12.4923 6.71696 12.4114C6.75051 12.3304 6.79968 12.2569 6.86167 12.195L11.0575 8H8.66667C8.48986 8 8.32029 7.92976 8.19526 7.80474C8.07024 7.67971 8 7.51014 8 7.33333C8 7.15652 8.07024 6.98695 8.19526 6.86193C8.32029 6.7369 8.48986 6.66667 8.66667 6.66667H12.6667C12.8435 6.66667 13.013 6.7369 13.1381 6.86193C13.2631 6.98695 13.3333 7.15652 13.3333 7.33333V11.3333C13.3333 11.5101 13.2631 11.6797 13.1381 11.8047C13.013 11.9298 12.8435 12 12.6667 12C12.4899 12 12.3203 11.9298 12.1953 11.8047C12.0702 11.6797 12 11.5101 12 11.3333V8.9425L7.805 13.1383C7.74309 13.2003 7.66956 13.2495 7.58863 13.283C7.50769 13.3166 7.42094 13.3339 7.33333 13.3339C7.24572 13.3339 7.15897 13.3166 7.07804 13.283C6.99711 13.2495 6.92358 13.2003 6.86167 13.1383Z" fill="var(--fill-0, #A1A1A1)"/>
</g>
</svg>
