<svg preserveAspectRatio="none" width="100%" height="100%" overflow="visible" style="display: block;" viewBox="0 0 40.005 42.0017" fill="none" xmlns="http://www.w3.org/2000/svg">
<g id="Group">
<path id="Vector" d="M40.005 2.00781H37.9969V26.0003H40.005V2.00781Z" fill="var(--fill-0, #006BF4)"/>
<path id="Vector_2" d="M1.995 40.0067V38.0117H0V42.0017H40.005V38.0117H37.9969V40.0067H1.995Z" fill="var(--fill-0, #006BF4)"/>
<path id="Vector_3" d="M37.9969 36H36.0019V38.0081H37.9969V36Z" fill="var(--fill-0, #006BF4)"/>
<path id="Vector_4" d="M36.0019 34.0078H34.0069V36.0028H36.0019V34.0078Z" fill="var(--fill-0, #006BF4)"/>
<path id="Vector_5" d="M8.00625 30.0031V31.9981H31.9987V30.0031H26.0006V28.0081H37.9969V26H1.995V28.0081H14.0044V30.0031H8.00625ZM15.9994 28.0081H24.0056V30.0031H15.9994V28.0081Z" fill="var(--fill-0, #006BF4)"/>
<path id="Vector_6" d="M34.0069 32H31.9988V34.0081H34.0069V32Z" fill="var(--fill-0, #006BF4)"/>
<path id="Vector_7" d="M36.0019 4.00391H4.00311V24.0064H36.0019V4.00391ZM34.0069 21.9983H5.99811V5.99891H34.0069V21.9983Z" fill="var(--fill-0, #006BF4)"/>
<path id="Vector_8" d="M31.9987 36H30.0037V38.0081H31.9987V36Z" fill="var(--fill-0, #006BF4)"/>
<path id="Vector_9" d="M30.0037 34.0078H27.9956V36.0028H30.0037V34.0078Z" fill="var(--fill-0, #006BF4)"/>
<path id="Vector_10" d="M24.0056 14.0059H26.0006V16.0009H27.9956V14.0059H30.0037V12.0109H31.9987V10.0028H30.0037V8.00781H27.9956V10.0028H26.0006V8.00781H24.0056V10.0028H21.9975V12.0109H24.0056V14.0059Z" fill="var(--fill-0, #3389F6)"/>
<path id="Vector_11" d="M26.0006 36H24.0056V38.0081H26.0006V36Z" fill="var(--fill-0, #006BF4)"/>
<path id="Vector_12" d="M24.0056 34.0078H21.9975V36.0028H24.0056V34.0078Z" fill="var(--fill-0, #006BF4)"/>
<path id="Vector_13" d="M20.0025 36H17.9944V38.0081H20.0025V36Z" fill="var(--fill-0, #006BF4)"/>
<path id="Vector_14" d="M17.9944 34.0078H15.9994V36.0028H17.9944V34.0078Z" fill="var(--fill-0, #006BF4)"/>
<path id="Vector_15" d="M15.9994 36H14.0044V38.0081H15.9994V36Z" fill="var(--fill-0, #006BF4)"/>
<path id="Vector_16" d="M11.9962 34.0078H10.0012V36.0028H11.9962V34.0078Z" fill="var(--fill-0, #006BF4)"/>
<path id="Vector_17" d="M10.0012 36H8.00623V38.0081H10.0012V36Z" fill="var(--fill-0, #006BF4)"/>
<path id="Vector_18" d="M8.00623 32H5.99811V34.0081H8.00623V32Z" fill="var(--fill-0, #006BF4)"/>
<path id="Vector_19" d="M5.99811 34.0078H4.00311V36.0028H5.99811V34.0078Z" fill="var(--fill-0, #006BF4)"/>
<path id="Vector_20" d="M37.9969 0H1.995V2.00812H37.9969V0Z" fill="var(--fill-0, #006BF4)"/>
<path id="Vector_21" d="M4.00312 36H1.995V38.0081H4.00312V36Z" fill="var(--fill-0, #006BF4)"/>
<path id="Vector_22" d="M1.995 2.00781H0V26.0003H1.995V2.00781Z" fill="var(--fill-0, #006BF4)"/>
</g>
</svg>
