<svg width="20" height="20" viewBox="0 0 20 20" fill="none" xmlns="http://www.w3.org/2000/svg">
<path d="M10.0039 1C14.9746 1 18.9998 5.02619 19 10.0039C19 14.972 14.9845 19.0088 10.0039 19.0088C5.02551 19.0086 1 14.9823 1 10.0039C1.00016 5.02492 5.03469 1.00016 10.0039 1Z" fill="#9391F7" stroke="#FFFFFE" stroke-width="2"/>
<path d="M8.50746 10.3898C9.19618 10.2806 9.65812 9.63385 9.54893 8.94513C9.43975 8.25642 8.79303 7.79448 8.10431 7.90367C7.4156 8.01285 6.95366 8.65957 7.06284 9.34828C7.18043 10.037 7.82715 10.4989 8.50746 10.3898ZM11.7999 10.3898C12.4886 10.2806 12.9505 9.63385 12.8413 8.94513C12.7321 8.25642 12.0854 7.79448 11.3967 7.90367C10.708 8.01285 10.246 8.65957 10.3552 9.34828C10.4644 10.037 11.1111 10.4989 11.7999 10.3898Z" fill="white"/>
<path d="M9.95565 3.95605C6.53728 3.95605 3.76562 6.7781 3.76562 10.2553H5.34463C5.34463 7.64319 7.39397 5.53506 9.94725 5.53506C12.5089 5.53506 14.5499 7.65159 14.5499 10.2553H16.1289C16.1457 6.7781 13.374 3.95605 9.95565 3.95605Z" fill="white"/>
</svg>
