<svg width="32" height="32" viewBox="0 0 32 32" xmlns="http://www.w3.org/2000/svg"><g fill="none"><circle fill="#F6851B" cx="16" cy="16" r="16"/><path d="M23.2 7.8l-5.3 3.9 1-2.3z" fill="#E2761B" stroke="#E2761B" stroke-width=".1" stroke-linecap="round" stroke-linejoin="round"/><path d="M8.8 7.8l5.2 3.9-1-2.3zm10.1 12.6l-1.4 2.1 3 .8.9-2.9zm-13.7 0l.9 2.9 3-.8-1.4-2.1z" fill="#E4761B" stroke="#E4761B" stroke-width=".1" stroke-linecap="round" stroke-linejoin="round"/><path d="M11.6 14.4l-.8 1.3 3 .1-.1-3.3zm8.8 0l-2.2-2-.1 3.4 3-.1zm-9.2 8.1l1.8-.9-1.6-1.2zm5.8-.9l1.8.9-.2-2.1z" fill="#E4761B" stroke="#E4761B" stroke-width=".1" stroke-linecap="round" stroke-linejoin="round"/><path d="M18.8 22.5l-1.8-.9.1 1.1v.5zm-5.6 0l1.6 1.2v-.5l.1-1.1z" fill="#D7C1B3" stroke="#D7C1B3" stroke-width=".1" stroke-linecap="round" stroke-linejoin="round"/><path d="M13.4 18.4l-1.5-.4 1.1-.5zm5.2 0l.4-.9-1.1-.5z" fill="#233447" stroke="#233447" stroke-width=".1" stroke-linecap="round" stroke-linejoin="round"/><path d="M13.2 22.5l.2-2.1-1.6 0zm5.4-2.1l.2 2.1 1.4-2.1zm2.2-4.7l-3 .1.3 1.6.4-.9 1.1.5zm-8.9 1.3l1.1-.5.4.9.3-1.6-3-.1z" fill="#CD6116" stroke="#CD6116" stroke-width=".1" stroke-linecap="round" stroke-linejoin="round"/><path d="M10.8 15.7l1.3 2.5-1.1-.5zm8.2 2l-1.1.5 1.3-2.5zm-6-2l-.3 1.6.4 2-.1-1.5zm3.7 0l-.2 2.1-.1 1.5.4-2z" fill="#E4751F" stroke="#E4751F" stroke-width=".1" stroke-linecap="round" stroke-linejoin="round"/><path d="M17.9 18l-.4 2 .3.2 1.6-1.2.2-.6zm-6-.4l.2.6 1.6 1.2.3-.2-.4-2z" fill="#F6851B" stroke="#F6851B" stroke-width=".1" stroke-linecap="round" stroke-linejoin="round"/><path d="M18 23.2v-.5l-.1-.1h-3.6l-.1.1v.5l-1.6-1.2.6.5 1.2.8h3.6l1.2-.8.6-.5z" fill="#C0AD9E" stroke="#C0AD9E" stroke-width=".1" stroke-linecap="round" stroke-linejoin="round"/><path d="M17 21.6l-.3-.2h-1.4l-.3.2-.1 1.1.1-.1h3.6l.1.1z" fill="#161616" stroke="#161616" stroke-width=".1" stroke-linecap="round" stroke-linejoin="round"/><path d="M23.5 8.1l.5-2.4-.8-2.3-6.2 4.6 2.4 2 3.4 1 .7-.9-.3-.2.5-.5-.4-.3.5-.4zm-15.5-2.4l.5 2.4-.3.4.5.4-.4.3.5.5-.3.2.8.9 3.4-1 2.4-2L8.8 5.4z" fill="#763D16" stroke="#763D16" stroke-width=".1" stroke-linecap="round" stroke-linejoin="round"/><path d="M22.8 11l-3.4-1 1 1.5-1.5 2.8 2 0h3zm-13.6-1l-3.4 1 .9 3.3h3l2-2.8-1-1.5z" fill="#F6851B" stroke="#F6851B" stroke-width=".1" stroke-linecap="round" stroke-linejoin="round"/></g></svg>
