<svg width="74" height="24" viewBox="0 0 74 24" fill="none" xmlns="http://www.w3.org/2000/svg">
<g clip-path="url(#clip0_1080_16800)">
<path d="M18.7077 20.0722L21.0469 21.2152C21.628 21.4992 22.3311 21.2466 22.5602 20.6418C23.2299 18.874 23.7565 16.7618 23.9349 14.5873C24.1386 12.1052 23.8869 9.56738 22.9014 7.37135L22.9 7.37196C22.8562 7.27733 22.8117 7.18297 22.7664 7.08892C22.4274 6.43845 21.7922 5.64067 20.8569 5.1128C19.8027 4.51782 18.3382 4.24854 16.4163 4.96843C16.0086 5.12115 15.5935 5.31851 15.1772 5.55394C15.7001 6.44344 16.0746 7.64309 16.1044 9.22495C16.1313 10.6546 15.8993 12.0085 15.544 13.2148L19.0521 14.5173C19.7647 14.7818 20.2313 15.4863 20.0982 16.2347C19.911 17.2876 19.5811 18.3124 19.12 19.2839C18.9953 19.5466 18.8582 19.8104 18.7077 20.0722Z" fill="currentColor"/>
<path d="M7.28857 19.1229C7.57619 19.0363 7.87995 18.9111 8.19873 18.7369C9.54876 17.9993 10.5697 16.7949 11.2956 15.6133C11.7799 14.825 12.1406 14.034 12.3844 13.3732C12.4812 13.1108 12.7708 12.9684 13.033 13.0658L18.6395 15.1474C19.1309 15.3298 19.4405 15.8238 19.3345 16.3372C19.1747 17.1117 18.8951 18.0372 18.4531 18.9684C17.7598 20.429 16.6794 21.8781 15.0627 22.794C13.7269 23.5508 12.3607 23.9412 11.0836 23.9999C9.69213 23.7645 8.77927 23.1605 8.19771 22.3539C7.58197 21.4999 7.30819 20.3777 7.28857 19.1229Z" fill="currentColor"/>
<path d="M10.6678 0.107452C14.1058 -0.294875 16.6604 0.465762 18.5995 1.83492C19.6298 2.56241 20.495 3.46793 21.2288 4.47763L21.2209 4.47316C19.9693 3.76681 18.2761 3.48687 16.1577 4.28037C13.3138 5.34563 10.2481 8.34743 8.61586 11.4086C7.55718 13.3942 6.51316 16.4389 6.55263 19.1261C6.57242 20.473 6.86506 21.7641 7.60042 22.784C7.85642 23.139 8.16256 23.4563 8.52246 23.7292C5.90361 23.0778 2.6084 21.2638 0.832552 17.0826C-0.71719 13.4338 0.0196717 9.39471 2.02756 6.14835C4.03851 2.89704 7.28598 0.503196 10.6678 0.107452Z" fill="currentColor"/>
<path d="M70.7041 3.5293H73.7041V20.1961H70.7041V3.5293Z" fill="currentColor"/>
<path d="M65.7507 7.79289H68.9908V20.1961H65.7507V7.79289ZM65.7041 3.5293H69.0375V6.44769H65.7041V3.5293Z" fill="currentColor"/>
<path d="M55.575 16.396C55.575 16.8849 55.7555 17.2553 56.1166 17.5071C56.4927 17.7442 56.9967 17.8627 57.6285 17.8627C58.6365 17.8627 59.4414 17.5812 60.0431 17.0182C60.6449 16.4553 60.9458 15.7071 60.9458 14.7738V14.196L57.4931 14.8405C56.8011 14.9738 56.3047 15.1664 56.0038 15.4182C55.7179 15.6553 55.575 15.9812 55.575 16.396ZM52.3706 16.8182C52.3706 15.796 52.7166 15.0034 53.4087 14.4405C54.1157 13.8627 55.1839 13.4479 56.6131 13.196L60.9458 12.4182V12.3293C60.9458 11.5145 60.7201 10.9071 60.2688 10.5071C59.8175 10.1071 59.1856 9.90709 58.3732 9.90709C57.5458 9.90709 56.9139 10.1071 56.4777 10.5071C56.0564 10.9071 55.8007 11.4701 55.7104 12.196H52.5286C52.664 10.6701 53.2582 9.5145 54.3113 8.7293C55.3644 7.9293 56.7259 7.5293 58.3958 7.5293C60.186 7.5293 61.5701 7.96634 62.548 8.84042C63.5409 9.69968 64.0373 10.9441 64.0373 12.5738V19.9072H61.1263L61.0586 18.1294C60.6825 18.722 60.0883 19.2183 59.2759 19.6183C58.4785 20.0035 57.5533 20.196 56.5002 20.196C55.9436 20.196 55.4095 20.1294 54.898 19.996C54.4016 19.8627 53.9653 19.6627 53.5892 19.396C53.2131 19.1146 52.9122 18.7664 52.6865 18.3516C52.4759 17.922 52.3706 17.4108 52.3706 16.8182Z" fill="currentColor"/>
<path d="M39.7041 7.86279H42.9993L46.1816 17.3622L49.3865 7.86279H52.7042L48.1903 20.1962H44.1954L39.7041 7.86279Z" fill="currentColor"/>
<path d="M31.2415 16.396C31.2415 16.8849 31.422 17.2553 31.7831 17.5071C32.1592 17.7442 32.6632 17.8627 33.295 17.8627C34.303 17.8627 35.1079 17.5812 35.7096 17.0182C36.3114 16.4553 36.6123 15.7071 36.6123 14.7738V14.196L33.1596 14.8405C32.4676 14.9738 31.9712 15.1664 31.6703 15.4182C31.3844 15.6553 31.2415 15.9812 31.2415 16.396ZM28.0371 16.8182C28.0371 15.796 28.3831 15.0034 29.0752 14.4405C29.7822 13.8627 30.8504 13.4479 32.2796 13.196L36.6123 12.4182V12.3293C36.6123 11.5145 36.3866 10.9071 35.9353 10.5071C35.484 10.1071 34.8521 9.90709 34.0397 9.90709C33.2123 9.90709 32.5804 10.1071 32.1442 10.5071C31.7229 10.9071 31.4672 11.4701 31.3769 12.196H28.1951C28.3305 10.6701 28.9247 9.5145 29.9778 8.7293C31.0309 7.9293 32.3924 7.5293 34.0623 7.5293C35.8525 7.5293 37.2366 7.96634 38.2145 8.84042C39.2074 9.69968 39.7039 10.9441 39.7039 12.5738V19.9072H36.7928L36.7251 18.1294C36.349 18.722 35.7548 19.2183 34.9424 19.6183C34.145 20.0035 33.2198 20.196 32.1667 20.196C31.6101 20.196 31.076 20.1294 30.5645 19.996C30.0681 19.8627 29.6318 19.6627 29.2557 19.396C28.8796 19.1146 28.5787 18.7664 28.353 18.3516C28.1424 17.922 28.0371 17.4108 28.0371 16.8182Z" fill="currentColor"/>
</g>
<defs>
<clipPath id="clip0_1080_16800">
<rect width="73.7043" height="24" fill="white"/>
</clipPath>
</defs>
</svg>
