<svg width="32" height="32" viewBox="0 0 32 32" xmlns="http://www.w3.org/2000/svg"><defs><linearGradient id="phantom-grad" x1="0" y1="0" x2="1" y2="1"><stop offset="0%" stop-color="#534BB1"/><stop offset="100%" stop-color="#551BF9"/></linearGradient></defs><circle fill="url(#phantom-grad)" cx="16" cy="16" r="16"/><path d="M24.5 15.5c0 .7-.5 1.2-1.2 1.2s-1.2-.5-1.2-1.2.5-1.2 1.2-1.2 1.2.5 1.2 1.2zm-3.8 0c0 .7-.5 1.2-1.2 1.2s-1.2-.5-1.2-1.2.5-1.2 1.2-1.2 1.2.5 1.2 1.2zm-1.4 5.6c-.5.7-1.5 1.2-2.7 1.2-2.5 0-4.5-1.6-4.5-4.5 0-4.4 3.3-9.5 8.2-9.5 3.7 0 5.2 2.7 5.2 5.8 0 4.3-2.7 8.5-6.8 8.5-.8 0-1.3-.3-1.3-1 0-.1 0-.3.1-.4.6-1.6 1-3.3 1-4.7 0-1-.3-1.7-1-1.7-1.2 0-2.6 2.3-2.6 4.8 0 1.5.5 2.4 1.5 2.4.5 0 1-.2 1.4-.5.5-.3.9-.7 1.2-1.1.1-.1.2-.2.3-.2.2 0 .3.2.3.4 0 .1 0 .3-.1.4z" fill="#FFF"/></svg>
