<svg width="72" height="72" viewBox="0 0 72 72" fill="none" xmlns="http://www.w3.org/2000/svg">
<style>
  .logo { fill: hsl(214, 92%, 48%); }
  @media (prefers-color-scheme: dark) {
    .logo { fill: hsl(60, 3%, 93%); }
  }
</style>
<g clip-path="url(#clip0_1377_326)">
<path class="logo" d="M56.1227 60.2154L63.14 63.6446C64.8833 64.4965 66.9926 63.7389 67.68 61.9245C69.6891 56.6209 71.2689 50.2845 71.8041 43.7609C72.4151 36.3148 71.6599 28.7013 68.7035 22.1133L68.6994 22.1151C68.5679 21.8312 68.4344 21.5482 68.2987 21.266C67.2815 19.3146 65.3761 16.9213 62.5702 15.3377C59.4075 13.5528 55.0139 12.7449 49.2484 14.9046C48.0252 15.3627 46.78 15.9548 45.5312 16.6611C47.0997 19.3296 48.2234 22.9285 48.3126 27.6741C48.3933 31.9631 47.6975 36.0247 46.6315 39.6434L57.1558 43.5509C59.2936 44.3446 60.6933 46.4579 60.2941 48.7031C59.7324 51.8619 58.7428 54.9363 57.3594 57.8508C56.9853 58.6389 56.574 59.4301 56.1227 60.2154Z"/>
<path class="logo" d="M21.8652 57.3691C22.7281 57.1092 23.6393 56.7336 24.5957 56.2111C28.6457 53.9983 31.7087 50.385 33.8862 46.8404C35.3391 44.4753 36.4214 42.1024 37.1526 40.12C37.443 39.3327 38.3118 38.9057 39.0985 39.1977L55.9179 45.4425C57.392 45.9898 58.3207 47.4719 58.0029 49.0119C57.5233 51.3355 56.6845 54.1121 55.3586 56.9056C53.2786 61.2875 50.0374 65.6346 45.1875 68.3823C41.1801 70.6528 37.0816 71.824 33.2503 72C29.0759 71.2937 26.3373 69.4818 24.5926 67.062C22.7454 64.5001 21.9241 61.1334 21.8652 57.3691Z"/>
<path class="logo" d="M32.0031 0.322354C42.3172 -0.88462 49.9809 1.39728 55.798 5.50473C58.8889 7.68718 61.4846 10.4037 63.686 13.4328L63.6624 13.4194C59.9076 11.3004 54.828 10.4605 48.4728 12.841C39.9413 16.0368 30.744 25.0421 25.8474 34.2257C22.6714 40.1824 19.5394 49.3163 19.6578 57.3778C19.7171 61.4186 20.595 65.2918 22.8011 68.3514C23.5691 69.4166 24.4875 70.3684 25.5672 71.1872C17.7107 69.2328 7.82516 63.791 2.49764 51.2475C-2.15156 40.3011 0.0590149 28.184 6.08264 18.4449C12.1155 8.69106 21.8578 1.50958 32.0031 0.322354Z"/>
</g>
<defs>
<clipPath id="clip0_1377_326">
<rect width="72.0006" height="72" fill="white"/>
</clipPath>
</defs>
</svg>
